<?xml version="1.0" encoding="UTF-8"?>
<svg fill="#f2b138" width="200px" height="200px" version="1.1" viewBox="0 0 700 700" xmlns="http://www.w3.org/2000/svg" xmlns:xlink="http://www.w3.org/1999/xlink">
 <g>
  <path d="m557.44 492.56-52.5-52.5c-1.6406-1.6406-3.8672-2.5625-6.1875-2.5625h-262.5v-17.5c0-6.9609-2.7656-13.641-7.6875-18.562s-11.602-7.6875-18.562-7.6875h-52.5c-4.832 0-8.75-3.918-8.75-8.75s3.918-8.75 8.75-8.75h52.5c6.9609 0 13.641-2.7656 18.562-7.6875s7.6875-11.602 7.6875-18.562v-17.5h61.25v35h-35c-4.832 0-8.75 3.918-8.75 8.75v35c0 2.3203 0.92188 4.5469 2.5625 6.1875s3.8672 2.5625 6.1875 2.5625h175c2.3203 0 4.5469-0.92188 6.1875-2.5625s2.5625-3.8672 2.5625-6.1875v-35c0-2.3203-0.92188-4.5469-2.5625-6.1875s-3.8672-2.5625-6.1875-2.5625h-35v-35h122.5c6.9609 0 13.641-2.7656 18.562-7.6875s7.6875-11.602 7.6875-18.562v-227.5c0-6.9609-2.7656-13.641-7.6875-18.562s-11.602-7.6875-18.562-7.6875h-61.25v17.5h61.25c2.3203 0 4.5469 0.92188 6.1875 2.5625s2.5625 3.8672 2.5625 6.1875v183.75h-367.5v-183.75c0-4.832 3.918-8.75 8.75-8.75h61.25v-17.5h-61.25c-6.9609 0-13.641 2.7656-18.562 7.6875s-7.6875 11.602-7.6875 18.562v227.5c0 6.9609 2.7656 13.641 7.6875 18.562s11.602 7.6875 18.562 7.6875h43.75v17.5c0 2.3203-0.92188 4.5469-2.5625 6.1875s-3.8672 2.5625-6.1875 2.5625h-52.5c-9.3789 0-18.043 5.0039-22.734 13.125-4.6875 8.1211-4.6875 18.129 0 26.25 4.6914 8.1211 13.355 13.125 22.734 13.125h52.5c2.3203 0 4.5469 0.92188 6.1875 2.5625s2.5625 3.8672 2.5625 6.1875v17.5h-17.5c-2.3203 0-4.5469 0.92188-6.1875 2.5625l-52.5 52.5c-1.6406 1.6406-2.5625 3.8672-2.5625 6.1875v26.25c0 4.6406 1.8438 9.0938 5.125 12.375s7.7344 5.125 12.375 5.125h385c4.6406 0 9.0938-1.8438 12.375-5.125s5.125-7.7344 5.125-12.375v-26.25c0-2.3203-0.92188-4.5469-2.5625-6.1875zm-128.69-90.062h-157.5v-17.5h157.5zm-43.75-35h-70v-35h70zm-218.75-61.25v-26.25h367.5v26.25c0 2.3203-0.92188 4.5469-2.5625 6.1875s-3.8672 2.5625-6.1875 2.5625h-350c-4.832 0-8.75-3.918-8.75-8.75zm38.621 148.75h290.26l35 35h-360.26zm-47.371 70v-17.5h385v17.5z"/>
  <path d="m210 463.75h17.5v17.5h-17.5z"/>
  <path d="m245 463.75h17.5v17.5h-17.5z"/>
  <path d="m437.5 463.75h17.5v17.5h-17.5z"/>
  <path d="m280 463.75h140v17.5h-140z"/>
  <path d="m472.5 463.75h17.5v17.5h-17.5z"/>
  <path d="m481.25 288.75h17.5v17.5h-17.5z"/>
  <path d="m236.25 148.75c0 3.7695 2.4102 7.1133 5.9844 8.3047l20.266 6.7539v19.941c0 2.3203 0.92188 4.5469 2.5625 6.1875l8.75 8.75c1.6406 1.6406 3.8672 2.5625 6.1875 2.5625h12.82l14.875 22.355c1.625 2.4414 4.3711 3.9023 7.3047 3.8945h17.5c2.3203 0 4.5469-0.92188 6.1875-2.5625l11.312-11.316 11.312 11.312v0.003906c1.6406 1.6406 3.8672 2.5625 6.1875 2.5625h17.5c2.9258 0 5.6562-1.4609 7.2812-3.8945l14.898-22.355h12.82c2.3203 0 4.5469-0.92188 6.1875-2.5625l8.75-8.75c1.6406-1.6406 2.5625-3.8672 2.5625-6.1875v-19.941l20.266-6.7539c3.5742-1.1914 5.9844-4.5352 5.9844-8.3047v-35c0-3.3164-1.8711-6.3477-4.8398-7.832l-12.66-6.3242v-29.594c0-4.0156-2.7344-7.5156-6.6328-8.4883l-28.367-7.0938v-10.668c0-2.3203-0.92188-4.5469-2.5625-6.1875l-17.5-17.5c-1.6406-1.6406-3.8672-2.5625-6.1875-2.5625h-17.5c-2.9258 0-5.6562 1.4609-7.2812 3.8945l-10.219 15.355-10.219-15.355c-1.625-2.4336-4.3555-3.8945-7.2812-3.8945h-17.5c-2.3203 0-4.5469 0.92188-6.1875 2.5625l-17.5 17.5c-1.6406 1.6406-2.5625 3.8672-2.5625 6.1875v10.668l-28.367 7.0977v-0.003906c-3.8984 0.97266-6.6328 4.4727-6.6328 8.4883v29.594l-12.66 6.3281v-0.003906c-2.9688 1.4844-4.8398 4.5156-4.8398 7.832zm135.93-113.75h9.1953l12.375 12.371v10.258l-14.938 14.934c-1.6406 1.6406-2.5625 3.8672-2.5625 6.1875v26.25h17.5v-22.629l11.438-11.438 23.562 5.8984v19.418h-8.75v17.5h15.434l10.816 5.4062v23.285l-15.137 5.0469-11.113-11.109v-5.1289h-17.5v8.75c0 2.3203 0.92188 4.5469 2.5625 6.1875l14.938 14.934v19.004l-3.6211 3.625h-13.879c-2.9258 0-5.6562 1.4609-7.2812 3.8945l-14.898 22.355h-9.1992l-12.371-12.371v-142.5zm-118.43 84.156 10.816-5.4062h15.434v-17.5h-8.75v-19.418l23.562-5.8984 11.438 11.438v22.629h17.5v-26.25c0-2.3203-0.92188-4.5469-2.5625-6.1875l-14.938-14.934v-10.258l12.371-12.371h9.1953l13.434 20.125v142.5l-12.371 12.371h-9.1992l-14.875-22.355c-1.625-2.4414-4.3711-3.9023-7.3047-3.8945h-13.879l-3.6211-3.6211v-19.008l14.938-14.938v0.003906c1.6406-1.6406 2.5625-3.8672 2.5625-6.1875v-8.75h-17.5v5.1289l-11.113 11.113-15.137-5.0508z"/>
  <path d="m317.56 181.19 12.371-12.371-6.1836-6.1875v-22.629h-17.5v26.25c0 2.3203 0.92188 4.5469 2.5625 6.1875z"/>
  <path d="m391.19 172.44c1.6406-1.6406 2.5625-3.8672 2.5625-6.1875v-26.25h-17.5v22.629l-6.1875 6.1875 12.371 12.371z"/>
 </g>
</svg>
